<?xml version="1.0" standalone="no"?>
<!DOCTYPE svg PUBLIC "-//W3C//DTD SVG 20010904//EN"
 "http://www.w3.org/TR/2001/REC-SVG-20010904/DTD/svg10.dtd">
<svg version="1.0" xmlns="http://www.w3.org/2000/svg"
 width="300.000000pt" height="292.000000pt" viewBox="0 0 300.000000 292.000000"
 preserveAspectRatio="xMidYMid meet">
<metadata>
Created by potrace 1.10, written by Peter Selinger 2001-2011
</metadata>
<g transform="translate(0.000000,292.000000) scale(0.100000,-0.100000)"
fill="#000000" stroke="none">
<path d="M1312 2909 c-178 -21 -413 -101 -569 -193 -371 -221 -628 -580 -713
-997 -131 -643 188 -1311 773 -1620 121 -63 224 -102 254 -94 13 3 32 14 43
25 18 18 20 34 20 159 l0 139 -108 -6 c-217 -10 -318 50 -414 249 -46 93 -61
112 -177 210 -38 33 -39 46 -4 60 68 26 193 -37 256 -129 92 -133 166 -182
278 -182 36 0 88 7 116 15 49 15 50 16 62 69 6 29 25 75 42 101 16 26 29 48
27 50 -2 1 -35 7 -75 13 -356 58 -545 254 -583 607 -23 207 11 354 112 484
l34 45 -14 60 c-24 103 4 308 45 323 45 17 202 -35 322 -106 l80 -49 58 14
c167 39 434 39 622 -1 l71 -15 76 47 c104 63 213 104 283 106 l56 2 18 -55
c24 -72 31 -200 15 -275 l-13 -60 50 -75 c88 -131 120 -283 96 -461 -25 -191
-72 -299 -171 -400 -102 -103 -227 -161 -406 -189 -43 -7 -80 -14 -82 -15 -2
-2 11 -22 27 -46 53 -76 61 -133 61 -416 0 -239 1 -254 20 -273 32 -32 61 -33
133 -6 480 180 828 592 939 1110 29 138 31 396 4 541 -82 442 -353 826 -741
1049 -270 155 -603 222 -923 185z"/>
</g>
</svg>
