<?xml version="1.0" standalone="no"?>
<!DOCTYPE svg PUBLIC "-//W3C//DTD SVG 20010904//EN"
 "http://www.w3.org/TR/2001/REC-SVG-20010904/DTD/svg10.dtd">
<svg version="1.0" xmlns="http://www.w3.org/2000/svg"
 width="219.000000pt" height="230.000000pt" viewBox="0 0 219.000000 230.000000"
 preserveAspectRatio="xMidYMid meet">
<metadata>
Created by potrace 1.10, written by Peter Selinger 2001-2011
</metadata>
<g transform="translate(0.000000,230.000000) scale(0.100000,-0.100000)"
fill="#000000" stroke="none">
<path d="M917 2180 c-577 -103 -959 -668 -841 -1241 79 -388 369 -692 762
-802 66 -18 104 -21 257 -21 153 0 191 3 257 21 365 102 641 371 742 723 162
569 -166 1145 -742 1302 -86 23 -346 34 -435 18z m793 -337 c0 -5 -16 -21 -35
-36 -40 -32 -45 -66 -21 -134 9 -27 14 -86 15 -174 0 -74 3 -172 6 -219 7
-103 -4 -133 -52 -138 -25 -2 -35 2 -48 22 -15 22 -16 51 -10 248 5 165 11
235 23 270 9 26 13 50 9 54 -7 8 -197 -135 -204 -153 -3 -7 2 -34 11 -60 18
-53 21 -138 6 -180 -6 -15 -47 -62 -90 -103 -73 -69 -80 -79 -80 -114 0 -42
22 -67 130 -150 74 -57 110 -126 110 -212 0 -115 -53 -191 -173 -249 -131 -64
-295 -69 -441 -15 -169 64 -225 224 -119 341 59 65 156 106 308 129 38 6 71
13 73 15 2 2 -3 14 -12 27 -11 15 -16 44 -16 85 l0 63 -43 0 c-59 0 -131 23
-173 55 -45 34 -92 118 -100 177 l-7 47 -143 3 -144 3 228 202 227 202 383 1
c210 0 382 -3 382 -7z"/>
<path d="M989 1647 c-123 -82 -82 -336 69 -424 79 -47 152 -33 206 41 31 41
34 154 7 227 -53 142 -190 218 -282 156z"/>
<path d="M999 921 c-109 -35 -181 -130 -164 -214 25 -115 166 -197 314 -183
253 23 321 263 107 373 -42 22 -67 27 -141 30 -49 1 -102 -1 -116 -6z"/>
</g>
</svg>
