<?xml version="1.0" standalone="no"?>
<!DOCTYPE svg PUBLIC "-//W3C//DTD SVG 20010904//EN"
 "http://www.w3.org/TR/2001/REC-SVG-20010904/DTD/svg10.dtd">
<svg version="1.0" xmlns="http://www.w3.org/2000/svg"
 width="300.000000pt" height="300.000000pt" viewBox="0 0 300.000000 300.000000"
 preserveAspectRatio="xMidYMid meet">
<metadata>
Created by potrace 1.10, written by Peter Selinger 2001-2011
</metadata>
<g transform="translate(0.000000,300.000000) scale(0.100000,-0.100000)"
fill="#000000" stroke="none">
<path d="M214 2986 c-96 -30 -180 -119 -204 -216 -7 -32 -10 -409 -8 -1295 l3
-1250 24 -49 c31 -63 84 -116 147 -147 l49 -24 1275 0 1275 0 49 24 c63 31
116 84 147 147 l24 49 0 1275 0 1275 -24 49 c-14 27 -41 66 -61 86 -20 20 -59
47 -86 61 l-49 24 -1260 2 c-1006 1 -1268 -1 -1301 -11z m572 -415 c95 -43
156 -140 156 -246 1 -153 -114 -267 -265 -267 -77 0 -139 24 -192 77 -54 55
-75 107 -75 190 0 83 21 135 75 190 55 54 107 75 190 75 47 0 84 -7 111 -19z
m1356 -756 c103 -27 169 -65 249 -144 80 -81 117 -144 143 -246 13 -49 16
-136 16 -517 l0 -458 -225 0 -225 0 0 413 c-1 445 -2 453 -55 523 -33 44 -115
84 -170 84 -55 0 -137 -40 -170 -84 -53 -70 -54 -78 -55 -523 l0 -413 -225 0
-225 0 0 675 0 675 225 0 225 0 0 -86 0 -85 48 48 c128 131 286 180 444 138z
m-1242 -690 l0 -675 -225 0 -225 0 0 675 0 675 225 0 225 0 0 -675z"/>
</g>
</svg>
