<?xml version="1.0" standalone="no"?>
<!DOCTYPE svg PUBLIC "-//W3C//DTD SVG 20010904//EN"
 "http://www.w3.org/TR/2001/REC-SVG-20010904/DTD/svg10.dtd">
<svg version="1.0" xmlns="http://www.w3.org/2000/svg"
 width="300.000000pt" height="300.000000pt" viewBox="0 0 300.000000 300.000000"
 preserveAspectRatio="xMidYMid meet">
<metadata>
Created by potrace 1.10, written by Peter Selinger 2001-2011
</metadata>
<g transform="translate(0.000000,300.000000) scale(0.100000,-0.100000)"
fill="#000000" stroke="none">
<path d="M195 2633 c-11 -3 -24 -9 -30 -14 -10 -10 1311 -1339 1332 -1339 7 0
313 299 680 664 553 550 666 667 655 678 -11 11 -243 13 -1315 14 -716 1
-1311 0 -1322 -3z"/>
<path d="M11 2449 c-8 -22 -11 -309 -11 -949 0 -881 3 -980 29 -980 3 0 227
220 496 490 l490 490 -490 490 c-269 270 -493 490 -496 490 -4 0 -12 -14 -18
-31z"/>
<path d="M2475 1990 l-490 -490 490 -490 c269 -270 493 -490 496 -490 26 0 29
99 29 980 0 881 -3 980 -29 980 -3 0 -227 -220 -496 -490z"/>
<path d="M645 880 c-396 -396 -487 -492 -477 -502 19 -19 2645 -19 2664 0 10
10 -81 106 -477 502 -270 270 -493 490 -497 490 -5 0 -74 -65 -156 -144 -81
-79 -157 -148 -169 -155 -53 -27 -68 -18 -232 144 -87 85 -159 155 -162 155
-2 0 -224 -220 -494 -490z"/>
</g>
</svg>
